<svg width="25" height="25" viewBox="0 0 25 25" fill="none" xmlns="http://www.w3.org/2000/svg">
  <path
    d="M3.23266 4C1.99959 4 1 4.99959 1 6.23266V12.0511C1 17.1328 5.11953 21.2523 10.2012 21.2523C14.815 21.2523 18.6356 17.8566 19.3001 13.4282H20.1486C22.2757 13.4282 24 11.7037 24 9.57668C24 7.44958 22.2757 5.72523 20.1486 5.72523H19.3445C19.1148 4.73663 18.2283 4 17.1698 4H3.23266ZM2.72523 6.23266C2.72523 5.95241 2.95241 5.72523 3.23266 5.72523H17.1698C17.4501 5.72523 17.6773 5.95241 17.6773 6.23266V12.0511C17.6773 16.18 14.3302 19.5271 10.2012 19.5271C6.07236 19.5271 2.72523 16.18 2.72523 12.0511V6.23266ZM19.4025 7.45047H20.1486C21.3229 7.45047 22.2748 8.4024 22.2748 9.57668C22.2748 10.751 21.3229 11.7029 20.1486 11.7029H19.4025V7.45047Z"
    fill="#212121" />
</svg>